<svg xmlns="http://www.w3.org/2000/svg" xmlns:xlink="http://www.w3.org/1999/xlink" xmlns:lucid="lucid" width="1312.5" height="591.5"><g transform="translate(390.9999755015095 160.5)" lucid:page-tab-id="0_0"><path d="M-340-155a5 5 0 0 1 5-5H-5a5 5 0 0 1 5 5V31a5 5 0 0 1-5 5h-330a5 5 0 0 1-5-5z" fill="#fff"/><path d="M-340-120v31H0v-31" fill="#fff"/><path d="M-340-90v33H0v-33" fill="#fff"/><path d="M-340-58v31H0v-31" fill="#fff"/><path d="M-340-28V5H0v-33" fill="#fff"/><path d="M-340 4v27a5 5 0 0 0 5 5H-5a5 5 0 0 0 5-5V4" fill="#fff"/><path d="M-340-120v-35a5 5 0 0 1 5-5H-5a5 5 0 0 1 5 5v35" fill="#ccc"/><path d="M-340-155a5 5 0 0 1 5-5H-5a5 5 0 0 1 5 5V31a5 5 0 0 1-5 5h-330a5 5 0 0 1-5-5zM-340-120H0M-280-120V36M-140-120V36" stroke="#333" fill="none"/><use xlink:href="#a" transform="matrix(1,0,0,1,-330,-159.99999999999994) translate(119.60494140624999 26.089501953125)"/><use xlink:href="#b" transform="matrix(1,0,0,1,-335,-117.49999999999994) translate(14.03072265625 18.589501953125)"/><use xlink:href="#c" transform="matrix(1,0,0,1,-275,-117.49999999999994) translate(0 18.589501953125)"/><use xlink:href="#d" transform="matrix(1,0,0,1,-135,-117.49999999999994) translate(0 18.589501953125)"/><use xlink:href="#e" transform="matrix(1,0,0,1,-275,-87.49999999999994) translate(0 19.589501953125)"/><use xlink:href="#f" transform="matrix(1,0,0,1,-135,-87.49999999999994) translate(0 19.589501953125)"/><use xlink:href="#g" transform="matrix(1,0,0,1,-335,-55.49999999999994) translate(14.435327148437498 18.589501953125)"/><use xlink:href="#h" transform="matrix(1,0,0,1,-275,-55.49999999999994) translate(0 18.589501953125)"/><use xlink:href="#d" transform="matrix(1,0,0,1,-135,-55.49999999999994) translate(0 18.589501953125)"/><use xlink:href="#i" transform="matrix(1,0,0,1,-275,-25.499999999999943) translate(0 19.589501953125)"/><use xlink:href="#d" transform="matrix(1,0,0,1,-135,-25.499999999999943) translate(0 19.589501953125)"/><use xlink:href="#j" transform="matrix(1,0,0,1,-275,6.500000000000057) translate(0 19.589501953125)"/><use xlink:href="#d" transform="matrix(1,0,0,1,-135,6.500000000000057) translate(0 19.589501953125)"/><path d="M100 195.58a5 5 0 0 1 5-5h329.5a5 5 0 0 1 5 5v122a5 5 0 0 1-5 5H105a5 5 0 0 1-5-5z" fill="#fff"/><path d="M100 230.58v31h339.5v-31" fill="#fff"/><path d="M100 260.58v33h339.5v-33" fill="#fff"/><path d="M100 292.58v25a5 5 0 0 0 5 5h329.5a5 5 0 0 0 5-5v-25" fill="#fff"/><path d="M100 230.58v-35a5 5 0 0 1 5-5h329.5a5 5 0 0 1 5 5v35" fill="#ccc"/><path d="M100 195.58a5 5 0 0 1 5-5h329.5a5 5 0 0 1 5 5v122a5 5 0 0 1-5 5H105a5 5 0 0 1-5-5zM100 230.58h339.5M214.77 230.58v92M361.2 230.58v92" stroke="#333" fill="none"/><use xlink:href="#k" transform="matrix(1,0,0,1,110,190.5776119784495) translate(134.211572265625 26.089501953125)"/><use xlink:href="#b" transform="matrix(1,0,0,1,105,233.0776119784495) translate(41.53072265625 18.589501953125)"/><use xlink:href="#l" transform="matrix(1,0,0,1,219.76826709190027,233.0776119784495) translate(0 18.589501953125)"/><use xlink:href="#d" transform="matrix(1,0,0,1,366.2056315436473,233.0776119784495) translate(0 18.589501953125)"/><use xlink:href="#e" transform="matrix(1,0,0,1,219.76826709190027,263.0776119784495) translate(0 19.589501953125)"/><use xlink:href="#f" transform="matrix(1,0,0,1,366.2056315436473,263.0776119784495) translate(0 19.589501953125)"/><use xlink:href="#g" transform="matrix(1,0,0,1,105,295.0776119784495) translate(41.935327148437494 18.589501953125)"/><use xlink:href="#m" transform="matrix(1,0,0,1,219.76826709190027,295.0776119784495) translate(0 18.589501953125)"/><use xlink:href="#f" transform="matrix(1,0,0,1,366.2056315436473,295.0776119784495) translate(0 18.589501953125)"/><path d="M-340 265a5 5 0 0 1 5-5H-5.5a5 5 0 0 1 5 5v122a5 5 0 0 1-5 5H-335a5 5 0 0 1-5-5z" fill="#fff"/><path d="M-340 300v31H-.5v-31" fill="#fff"/><path d="M-340 330v33H-.5v-33" fill="#fff"/><path d="M-340 362v25a5 5 0 0 0 5 5H-5.5a5 5 0 0 0 5-5v-25" fill="#fff"/><path d="M-340 300v-35a5 5 0 0 1 5-5H-5.5a5 5 0 0 1 5 5v35" fill="#ccc"/><path d="M-340 265a5 5 0 0 1 5-5H-5.5a5 5 0 0 1 5 5v122a5 5 0 0 1-5 5H-335a5 5 0 0 1-5-5zM-340 300H-.5M-280 300v92M-140.25 300v92" stroke="#333" fill="none"/><use xlink:href="#n" transform="matrix(1,0,0,1,-330,260) translate(110.14373535156248 26.089501953125)"/><use xlink:href="#b" transform="matrix(1,0,0,1,-335,302.5) translate(14.03072265625 18.589501953125)"/><use xlink:href="#l" transform="matrix(1,0,0,1,-275,302.5) translate(0 18.589501953125)"/><use xlink:href="#o" transform="matrix(1,0,0,1,-135.24997281832395,302.5) translate(0 18.589501953125)"/><use xlink:href="#e" transform="matrix(1,0,0,1,-275,332.5) translate(0 19.589501953125)"/><use xlink:href="#p" transform="matrix(1,0,0,1,-135.24997281832395,332.5) translate(0 19.589501953125)"/><use xlink:href="#g" transform="matrix(1,0,0,1,-335,364.5) translate(14.435327148437498 18.589501953125)"/><use xlink:href="#q" transform="matrix(1,0,0,1,-275,364.5) translate(0 18.589501953125)"/><use xlink:href="#p" transform="matrix(1,0,0,1,-135.24997281832395,364.5) translate(0 18.589501953125)"/><path d="M540-155a5 5 0 0 1 5-5h330a5 5 0 0 1 5 5V69a5 5 0 0 1-5 5H545a5 5 0 0 1-5-5z" fill="#fff"/><path d="M540-120v31h340v-31" fill="#fff"/><path d="M540-90v33h340v-33" fill="#fff"/><path d="M540-58v52h340v-52" fill="#fff"/><path d="M540-7v31h340V-7" fill="#fff"/><path d="M540 23v46a5 5 0 0 0 5 5h330a5 5 0 0 0 5-5V23" fill="#fff"/><path d="M540-120v-35a5 5 0 0 1 5-5h330a5 5 0 0 1 5 5v35" fill="#ccc"/><path d="M540-155a5 5 0 0 1 5-5h330a5 5 0 0 1 5 5V69a5 5 0 0 1-5 5H545a5 5 0 0 1-5-5zM540-120h340M600-120V74M740-120V74" stroke="#333" fill="none"/><use xlink:href="#r" transform="matrix(1,0,0,1,550,-160) translate(98.7003759765625 26.089501953125)"/><use xlink:href="#s" transform="matrix(1,0,0,1,550,-160) translate(167.09079589843748 26.089501953125)"/><use xlink:href="#b" transform="matrix(1,0,0,1,545,-117.5) translate(14.03072265625 18.589501953125)"/><use xlink:href="#c" transform="matrix(1,0,0,1,605,-117.5) translate(0 18.589501953125)"/><use xlink:href="#d" transform="matrix(1,0,0,1,745,-117.5) translate(0 18.589501953125)"/><use xlink:href="#t" transform="matrix(1,0,0,1,605,-87.5) translate(0 19.589501953125)"/><use xlink:href="#u" transform="matrix(1,0,0,1,605,-87.5) translate(67.95720703125001 19.589501953125)"/><use xlink:href="#f" transform="matrix(1,0,0,1,745,-87.5) translate(0 19.589501953125)"/><use xlink:href="#v" transform="matrix(1,0,0,1,605,-55.5) translate(0 18.96212890625)"/><use xlink:href="#w" transform="matrix(1,0,0,1,605,-55.5) translate(0 39.216875)"/><use xlink:href="#f" transform="matrix(1,0,0,1,745,-55.5) translate(0 29.089501953125)"/><use xlink:href="#g" transform="matrix(1,0,0,1,545,-4.5) translate(14.435327148437498 18.589501953125)"/><use xlink:href="#x" transform="matrix(1,0,0,1,605,-4.5) translate(0 18.589501953125)"/><use xlink:href="#d" transform="matrix(1,0,0,1,745,-4.5) translate(0 18.589501953125)"/><use xlink:href="#y" transform="matrix(1,0,0,1,605,25.5) translate(0 18.96212890625)"/><use xlink:href="#z" transform="matrix(1,0,0,1,605,25.5) translate(0 39.216875)"/><use xlink:href="#A" transform="matrix(1,0,0,1,745,25.5) translate(0 29.089501953125)"/><path d="M540 125a5 5 0 0 1 5-5h330a5 5 0 0 1 5 5v92a5 5 0 0 1-5 5H545a5 5 0 0 1-5-5z" fill="#fff"/><path d="M540 160v31h340v-31" fill="#fff"/><path d="M540 190v27a5 5 0 0 0 5 5h330a5 5 0 0 0 5-5v-27" fill="#fff"/><path d="M540 160v-35a5 5 0 0 1 5-5h330a5 5 0 0 1 5 5v35" fill="#ccc"/><path d="M540 125a5 5 0 0 1 5-5h330a5 5 0 0 1 5 5v92a5 5 0 0 1-5 5H545a5 5 0 0 1-5-5zM540 160h340M600 160v62M872 160v62" stroke="#333" fill="none"/><use xlink:href="#B" transform="matrix(1,0,0,1,550,120) translate(87.6166650390625 26.089501953125)"/><use xlink:href="#C" transform="matrix(1,0,0,1,550,120) translate(158.8270556640625 26.089501953125)"/><use xlink:href="#b" transform="matrix(1,0,0,1,545,162.5) translate(14.03072265625 18.589501953125)"/><use xlink:href="#c" transform="matrix(1,0,0,1,605,162.5) translate(0 18.589501953125)"/><use xlink:href="#e" transform="matrix(1,0,0,1,605,192.5) translate(0 19.589501953125)"/><path d="M100-155a5 5 0 0 1 5-5h330a5 5 0 0 1 5 5V59a5 5 0 0 1-5 5H105a5 5 0 0 1-5-5z" fill="#fff"/><path d="M100-120v31h340v-31" fill="#fff"/><path d="M100-90v31h340v-31" fill="#fff"/><path d="M100-60v33h340v-33" fill="#fff"/><path d="M100-28V5h340v-33" fill="#fff"/><path d="M100 4v31h340V4" fill="#fff"/><path d="M100 34v25a5 5 0 0 0 5 5h330a5 5 0 0 0 5-5V34" fill="#fff"/><path d="M100-120v-35a5 5 0 0 1 5-5h330a5 5 0 0 1 5 5v35" fill="#ccc"/><path d="M100-155a5 5 0 0 1 5-5h330a5 5 0 0 1 5 5V59a5 5 0 0 1-5 5H105a5 5 0 0 1-5-5zM100-120h340M160-120V64M300-120V64" stroke="#333" fill="none"/><use xlink:href="#D" transform="matrix(1,0,0,1,110,-160) translate(121.8323095703125 26.089501953125)"/><use xlink:href="#b" transform="matrix(1,0,0,1,105,-117.5) translate(14.03072265625 18.589501953125)"/><use xlink:href="#c" transform="matrix(1,0,0,1,165,-117.5) translate(0 18.589501953125)"/><use xlink:href="#d" transform="matrix(1,0,0,1,305,-117.5) translate(0 18.589501953125)"/><use xlink:href="#g" transform="matrix(1,0,0,1,105,-87.5) translate(14.435327148437498 18.589501953125)"/><use xlink:href="#E" transform="matrix(1,0,0,1,165,-87.5) translate(0 18.589501953125)"/><use xlink:href="#F" transform="matrix(1,0,0,1,305,-87.5) translate(0 18.589501953125)"/><use xlink:href="#G" transform="matrix(1,0,0,1,165,-57.5) translate(0 19.589501953125)"/><use xlink:href="#H" transform="matrix(1,0,0,1,165,-57.5) translate(36.20188476562501 19.589501953125)"/><use xlink:href="#d" transform="matrix(1,0,0,1,305,-57.5) translate(0 19.589501953125)"/><use xlink:href="#I" transform="matrix(1,0,0,1,165,-25.5) translate(0 19.589501953125)"/><use xlink:href="#A" transform="matrix(1,0,0,1,305,-25.5) translate(0 19.589501953125)"/><use xlink:href="#g" transform="matrix(1,0,0,1,105,6.5) translate(14.435327148437498 18.589501953125)"/><use xlink:href="#J" transform="matrix(1,0,0,1,165,6.5) translate(0 18.589501953125)"/><use xlink:href="#d" transform="matrix(1,0,0,1,305,6.5) translate(0 18.589501953125)"/><use xlink:href="#g" transform="matrix(1,0,0,1,105,36.5) translate(14.435327148437498 18.589501953125)"/><use xlink:href="#K" transform="matrix(1,0,0,1,165,36.5) translate(0 18.589501953125)"/><use xlink:href="#L" transform="matrix(1,0,0,1,165,36.5) translate(38.474208984375004 18.589501953125)"/><use xlink:href="#d" transform="matrix(1,0,0,1,305,36.5) translate(0 18.589501953125)"/><path d="M-339.5 93.58a5 5 0 0 1 5-5h330a5 5 0 0 1 5 5v92a5 5 0 0 1-5 5h-330a5 5 0 0 1-5-5z" fill="#fff"/><path d="M-339.5 128.58v31H.5v-31" fill="#fff"/><path d="M-339.5 158.58v27a5 5 0 0 0 5 5h330a5 5 0 0 0 5-5v-27" fill="#fff"/><path d="M-339.5 128.58v-35a5 5 0 0 1 5-5h330a5 5 0 0 1 5 5v35" fill="#ccc"/><path d="M-339.5 93.58a5 5 0 0 1 5-5h330a5 5 0 0 1 5 5v92a5 5 0 0 1-5 5h-330a5 5 0 0 1-5-5zM-339.5 128.58H.5M-279.5 128.58v62M-139.5 128.58v62" stroke="#333" fill="none"/><use xlink:href="#M" transform="matrix(1,0,0,1,-329.5000543633521,88.57761197844951) translate(120.8677978515625 26.089501953125)"/><use xlink:href="#b" transform="matrix(1,0,0,1,-334.5000543633521,131.0776119784495) translate(14.03072265625 18.589501953125)"/><use xlink:href="#l" transform="matrix(1,0,0,1,-274.5000543633521,131.0776119784495) translate(0 18.589501953125)"/><use xlink:href="#o" transform="matrix(1,0,0,1,-134.5000543633521,131.0776119784495) translate(0 18.589501953125)"/><use xlink:href="#e" transform="matrix(1,0,0,1,-274.5000543633521,161.0776119784495) translate(0 19.589501953125)"/><use xlink:href="#p" transform="matrix(1,0,0,1,-134.5000543633521,161.0776119784495) translate(0 19.589501953125)"/><path d="M900.5 175h8a12 12 0 0 0 12-12V20a12 12 0 0 0-12-12h-9.18M880.5 175h20m0 10v-20M880.95 8h20m-20 10l20-10m-20-10l20 10M519.5-105H502a12 12 0 0 0-12 12V7a12 12 0 0 1-12 12h-18.68M539.5-105h-20m0-10v20M440.95 19h20m-20 10l20-10m-20-10l20 10M20.5-105H38a12 12 0 0 1 12 12v6a12 12 0 0 0 12 12h18.68M.5-105h20m0 10v-20M99.05-75h-20m20-10l-20 10m20 10l-20-10M-358.82 143.6H-368a12 12 0 0 0-12 12V208a12 12 0 0 0 12 12H47.5a12 12 0 0 1 12 12v63.73a12 12 0 0 0 12 12h8M-340.45 143.6h-20m20-10l-20 10m20 10l-20-10M99.5 307.73h-20m0-10v20" stroke="#333" stroke-width="2" fill="none"/><path d="M80.68 245.54H42a12 12 0 0 0-12 12V418a12 12 0 0 1-12 12h-396a12 12 0 0 1-12-12v-28.85a12 12 0 0 1 12-12h17.5M99.05 245.54h-20m20-10l-20 10m20 10l-20-10M-340.5 377.15h-20m0-10v20M21 143.6h8a12 12 0 0 0 12-12V-31a12 12 0 0 0-12-12h-9.68M1 143.6h20m0 10v-20M.95-43h20m-20 10l20-10m-20-10l20 10M460 245.54h8a12 12 0 0 0 12-12v-70.96a12 12 0 0 0-12-12H71.5a12 12 0 0 1-12-12V61a12 12 0 0 1 12-12h9.18M440 245.54h20m0 10v-20M99.05 49h-20m20-10l-20 10m20 10l-20-10" stroke="#333" stroke-width="2" fill="none"/><defs><path d="M115 0v-183l604-853c49-68 106-137 165-205-253 8-513 2-772 4v-253h1133v184L652-468c-53 73-113 147-176 220 253-10 513-3 772-5V0H115" id="N"/><path d="M628 22C291 22 81-210 81-554c0-346 210-578 547-578 336 0 547 232 547 578 0 344-211 576-547 576zm0-236c160 0 242-146 242-341 0-197-82-341-242-341S387-753 387-555c0 195 81 341 241 341" id="O"/><path d="M428-1490V0H128v-1490h300" id="P"/><path d="M625 442c-280 0-454-114-503-274l258-72c28 63 97 128 243 128 153 0 246-69 246-216v-206h-23C805-108 717-16 536-16 284-16 81-191 81-561c0-378 208-571 456-571 188 0 280 113 321 202h13v-188h295V-9c0 303-226 451-541 451zm5-686c153 0 240-119 240-319 0-198-86-329-240-329-158 0-241 137-241 329 0 195 85 319 241 319" id="Q"/><path d="M128 0v-1118h300V0H128zm150-1264c-91 0-165-68-165-154 0-85 74-154 165-154 90 0 165 69 165 154 0 86-75 154-165 154" id="R"/><path d="M628 22C291 22 81-210 81-554c0-346 210-578 547-578 265 0 455 142 497 372l-279 52c-25-116-99-188-215-188-160 0-244 139-244 341 0 200 84 341 244 341 116 0 193-74 217-195l279 51C1085-123 896 22 628 22" id="S"/><path d="M572 22C302 22 117-98 78-306l279-48c29 105 101 156 224 156 114 0 185-48 185-115 0-118-228-130-337-155-215-49-322-150-322-317 0-215 187-347 470-347 265 0 424 116 466 298l-266 47c-24-76-87-130-196-130-98 0-174 46-174 113 0 56 38 95 144 117l201 40c216 44 320 143 320 302 0 220-207 367-500 367" id="T"/><g id="a"><use transform="matrix(0.008173828125000001,0,0,0.008173828125000001,0,0)" xlink:href="#N"/><use transform="matrix(0.008173828125000001,0,0,0.008173828125000001,11.11640625,0)" xlink:href="#O"/><use transform="matrix(0.008173828125000001,0,0,0.008173828125000001,21.382734375000002,0)" xlink:href="#P"/><use transform="matrix(0.008173828125000001,0,0,0.008173828125000001,25.919208984375004,0)" xlink:href="#O"/><use transform="matrix(0.008173828125000001,0,0,0.008173828125000001,36.185537109375005,0)" xlink:href="#Q"/><use transform="matrix(0.008173828125000001,0,0,0.008173828125000001,46.762470703125004,0)" xlink:href="#R"/><use transform="matrix(0.008173828125000001,0,0,0.008173828125000001,51.2989453125,0)" xlink:href="#S"/><use transform="matrix(0.008173828125000001,0,0,0.008173828125000001,61.148408203125,0)" xlink:href="#O"/><use transform="matrix(0.008173828125000001,0,0,0.008173828125000001,71.414736328125,0)" xlink:href="#T"/></g><path d="M180 0v-1490h510c348 0 508 209 508 474 0 266-160 477-507 477H370V0H180zm190-706h312c236 0 327-133 327-310 0-176-91-307-329-307H370v617" id="U"/><path d="M180 0v-1490h190c0 262 1 526-3 784 217-279 467-523 702-784h249L716-845 1319 0h-225L585-716 370-489V0H180" id="V"/><g id="b"><use transform="matrix(0.008173828125000001,0,0,0.008173828125000001,0,0)" xlink:href="#U"/><use transform="matrix(0.008173828125000001,0,0,0.008173828125000001,10.691367187500001,0)" xlink:href="#V"/></g><path fill="#333" d="M66 0l185-1118h180L246 0H66zm307-1301c-71 0-117-55-106-119s74-119 145-119c65 0 117 50 106 118s-78 120-145 120" id="W"/><path fill="#333" d="M492 24C248 24 94-147 94-425c0-352 212-707 569-707 222 0 274 136 303 198h12l92-556h181L1004 0H829l30-173h-19C792-103 700 24 492 24zm32-161c268 0 407-295 407-549 0-175-80-285-247-285-266 0-408 283-408 536 0 174 79 298 248 298" id="X"/><g id="c"><use transform="matrix(0.008173828125000001,0,0,0.008173828125000001,0,0)" xlink:href="#W"/><use transform="matrix(0.008173828125000001,0,0,0.008173828125000001,4.062392578125,0)" xlink:href="#X"/></g><path d="M370-1490V0H180v-1490h190" id="Y"/><path d="M338-670V0H158v-1118h173l1 207c72-158 192-221 342-221 226 0 378 139 378 422V0H872v-695c0-172-96-275-252-275-161 0-282 109-282 300" id="Z"/><path d="M598-1118v154H368v674c0 100 37 144 132 144 23 0 62-6 92-12L629-6c-37 13-88 20-134 20-193 0-307-107-307-290v-688H20v-154h168v-266h180v266h230" id="aa"/><g id="d"><use transform="matrix(0.008173828125000001,0,0,0.008173828125000001,0,0)" xlink:href="#Y"/><use transform="matrix(0.008173828125000001,0,0,0.008173828125000001,4.495605468750001,0)" xlink:href="#Z"/><use transform="matrix(0.008173828125000001,0,0,0.008173828125000001,14.3859375,0)" xlink:href="#aa"/></g><path fill="#333" d="M87 0l247-1490h218l448 953c25 54 80 176 129 327 11-149 33-280 47-366l151-914h190L1270 0h-219C841-464 670-765 473-1275 414-753 352-475 278 0H87" id="ab"/><path fill="#333" d="M528 24C258 24 94-156 94-433c0-355 229-699 603-699 270 0 436 178 436 458 0 359-234 698-605 698zm4-161c275 0 420-287 420-533 0-170-77-301-260-301-271 0-418 288-418 536 0 168 77 298 258 298" id="ac"/><path fill="#333" d="M65 0l186-1118h175l-31 195c80-148 212-215 337-215 153 0 236 96 255 228 75-143 223-228 382-228 199 0 341 131 298 390L1543 0h-181l126-756c27-162-65-218-177-218-160 0-274 111-297 250L894 0H714l128-773c21-127-57-201-174-201-136 0-277 97-307 277L245 0H65" id="ad"/><path fill="#333" d="M592 24c-216 0-276-130-305-197h-18L239 0H65l247-1490h180l-92 551h15c51-63 134-193 344-193 246 0 401 170 401 447 0 348-211 709-568 709zm-24-161c267 0 411-296 411-543 0-170-78-291-250-291-269 0-405 284-405 542 0 177 81 292 244 292" id="ae"/><path fill="#333" d="M66 0l185-1118h174l-28 172h12c78-136 219-209 411-185l-30 181c-211-47-398 67-428 250L246 0H66" id="af"/><path fill="#333" d="M535 24C259 24 94-144 94-427c0-392 272-715 610-715 216 0 356 119 356 305 0 244-237 344-790 350-18 199 49 349 276 352 142 0 260-66 317-173l167 47C947-85 756 24 535 24zM294-623c447-4 586-57 586-218 0-85-78-141-194-141-220 0-342 177-392 359" id="ag"/><g id="e"><use transform="matrix(0.008173828125000001,0,0,0.008173828125000001,0,0)" xlink:href="#ab"/><use transform="matrix(0.008173828125000001,0,0,0.008173828125000001,12.612216796875002,0)" xlink:href="#ac"/><use transform="matrix(0.008173828125000001,0,0,0.008173828125000001,22.657851562500003,0)" xlink:href="#ad"/><use transform="matrix(0.008173828125000001,0,0,0.008173828125000001,37.321699218750005,0)" xlink:href="#ae"/><use transform="matrix(0.008173828125000001,0,0,0.008173828125000001,47.579853515625004,0)" xlink:href="#af"/><use transform="matrix(0.008173828125000001,0,0,0.008173828125000001,53.612138671875,0)" xlink:href="#ag"/></g><path d="M657 26c-323 0-524-166-541-416h195c15 169 171 246 346 246 202 0 356-106 356-265 5-203-294-238-475-293-239-73-380-191-380-389 0-252 224-419 512-419 294 0 499 171 508 396H992c-17-145-151-228-328-228-193 0-321 102-321 242 0 156 175 211 284 241l149 41c160 44 422 134 422 412 0 244-197 432-541 432" id="ah"/><path d="M158 0v-1118h174v172h12c41-113 157-188 290-188 26 0 70 2 91 3v181c-11-2-60-10-108-10-161 0-279 109-279 260V0H158" id="ai"/><path d="M158 0v-1118h180V0H158zm91-1301c-68 0-125-53-125-119s57-119 125-119c69 0 126 53 126 119s-57 119-126 119" id="aj"/><path d="M611 442c-248 0-391-105-460-228l146-94c47 65 117 165 314 165 178 0 307-82 307-266v-224h-17C863-141 792-18 576-18c-268 0-472-195-472-546 0-346 197-568 476-568 216 0 288 133 326 193h17v-179h175V29c0 289-215 413-487 413zm-5-620c203 0 314-146 314-390 0-237-108-403-314-403-213 0-319 180-319 403 0 230 109 390 319 390" id="ak"/><g id="f"><use transform="matrix(0.008173828125000001,0,0,0.008173828125000001,0,0)" xlink:href="#ah"/><use transform="matrix(0.008173828125000001,0,0,0.008173828125000001,10.740410156250002,0)" xlink:href="#aa"/><use transform="matrix(0.008173828125000001,0,0,0.008173828125000001,16.216875,0)" xlink:href="#ai"/><use transform="matrix(0.008173828125000001,0,0,0.008173828125000001,22.780458984375002,0)" xlink:href="#aj"/><use transform="matrix(0.008173828125000001,0,0,0.008173828125000001,26.834677734375003,0)" xlink:href="#Z"/><use transform="matrix(0.008173828125000001,0,0,0.008173828125000001,36.725009765625,0)" xlink:href="#ak"/></g><path d="M180 0v-1490h901v168H370v510h643v168H370V0H180" id="al"/><g id="g"><use transform="matrix(0.008173828125000001,0,0,0.008173828125000001,0,0)" xlink:href="#al"/><use transform="matrix(0.008173828125000001,0,0,0.008173828125000001,9.882158203125002,0)" xlink:href="#V"/></g><path fill="#333" d="M698 20c-339 0-559-226-559-600 0-470 305-930 790-930 306 0 529 181 531 489h-190c-8-202-157-313-348-313-373 0-599 380-599 749 0 281 158 429 382 429 202 0 399-111 474-313h191C1267-166 997 20 698 20" id="am"/><path fill="#333" d="M443 14C219 14 87-123 134-408l117-710h180L317-423c-28 171 49 275 206 275s300-105 332-300l110-670h181L961 0H787l35-209C722-47 590 14 443 14" id="an"/><path fill="#333" d="M481 24C202 24 45-202 104-557s293-575 571-575c216 0 263 132 291 193h15l29-179h181L1006 0H831l28-173h-21C788-107 693 24 481 24zm56-161c204 0 342-174 383-422s-41-412-245-412c-215 0-350 183-388 412-39 235 39 422 250 422" id="ao"/><g id="h"><use transform="matrix(0.008173828125000001,0,0,0.008173828125000001,0,0)" xlink:href="#am"/><use transform="matrix(0.008173828125000001,0,0,0.008173828125000001,12.219873046875001,0)" xlink:href="#W"/><use transform="matrix(0.008173828125000001,0,0,0.008173828125000001,16.282265625,0)" xlink:href="#an"/><use transform="matrix(0.008173828125000001,0,0,0.008173828125000001,26.188945312500003,0)" xlink:href="#X"/><use transform="matrix(0.008173828125000001,0,0,0.008173828125000001,36.447099609375,0)" xlink:href="#ao"/><use transform="matrix(0.008173828125000001,0,0,0.008173828125000001,46.721601562500005,0)" xlink:href="#X"/></g><path fill="#333" d="M226-1323l28-167h1126l-28 167H885L666 0H476l219-1323H226" id="ap"/><path fill="#333" d="M356-664L245 0H65l186-1118h173l-32 197c96-152 219-211 366-211 232 0 366 145 319 428L960 0H779l117-701c29-174-48-269-198-269-165 0-310 115-342 306zm506-649c-99 0-179-83-229-83-37 0-59 42-67 79H440c25-123 92-208 197-208 104 0 160 85 227 85 34 0 53-25 69-81h123c-25 129-98 208-194 208" id="aq"/><g id="i"><use transform="matrix(0.008173828125000001,0,0,0.008173828125000001,0,0)" xlink:href="#ap"/><use transform="matrix(0.008173828125000001,0,0,0.008173828125000001,9.5143359375,0)" xlink:href="#ao"/><use transform="matrix(0.008173828125000001,0,0,0.008173828125000001,19.788837890625004,0)" xlink:href="#ad"/><use transform="matrix(0.008173828125000001,0,0,0.008173828125000001,34.452685546875,0)" xlink:href="#ao"/><use transform="matrix(0.008173828125000001,0,0,0.008173828125000001,44.72718750000001,0)" xlink:href="#aq"/><use transform="matrix(0.008173828125000001,0,0,0.008173828125000001,54.625693359375006,0)" xlink:href="#ac"/></g><path fill="#333" d="M87 0l247-1490h510c346 0 473 206 430 472s-238 479-586 479H366L277 0H87zm307-706h312c241 0 351-138 379-311s-39-306-279-306H496" id="ar"/><path fill="#333" d="M451 24C217 22 71-78 61-277l174-29c11 123 90 172 219 172 161 0 280-83 297-181 11-71-30-117-135-143l-179-44c-195-48-280-153-253-316 31-186 223-314 455-314 233 4 337 107 366 275l-165 30c-18-80-65-152-204-152-138 0-256 75-272 174-13 77 32 118 158 149l162 40c195 48 278 154 252 313C904-113 708 24 451 24" id="as"/><path fill="#333" d="M-4 418l255-1536h174l-30 179h9c47-68 143-193 355-193 246 0 401 170 401 447 0 348-211 709-568 709-219 0-274-140-300-202h-17l-99 596H-4zm572-555c267 0 411-296 411-543 0-170-78-291-250-291-269 0-405 284-405 542 0 177 81 292 244 292" id="at"/><path fill="#333" d="M691-1118l-25 154H437L325-290c-17 103 16 144 108 144 23 0 63-6 94-12L538-6c-36 12-87 20-136 20-196 0-290-109-260-290l114-688H88l25-154h169l44-266h180l-44 266h229" id="au"/><g id="j"><use transform="matrix(0.008173828125000001,0,0,0.008173828125000001,0,0)" xlink:href="#ar"/><use transform="matrix(0.008173828125000001,0,0,0.008173828125000001,10.691367187500001,0)" xlink:href="#af"/><use transform="matrix(0.008173828125000001,0,0,0.008173828125000001,16.72365234375,0)" xlink:href="#ag"/><use transform="matrix(0.008173828125000001,0,0,0.008173828125000001,26.360595703125,0)" xlink:href="#as"/><use transform="matrix(0.008173828125000001,0,0,0.008173828125000001,35.188330078125,0)" xlink:href="#an"/><use transform="matrix(0.008173828125000001,0,0,0.008173828125000001,45.095009765625,0)" xlink:href="#at"/><use transform="matrix(0.008173828125000001,0,0,0.008173828125000001,55.3531640625,0)" xlink:href="#an"/><use transform="matrix(0.008173828125000001,0,0,0.008173828125000001,65.25984375,0)" xlink:href="#ag"/><use transform="matrix(0.008173828125000001,0,0,0.008173828125000001,74.896787109375,0)" xlink:href="#as"/><use transform="matrix(0.008173828125000001,0,0,0.008173828125000001,83.724521484375,0)" xlink:href="#au"/><use transform="matrix(0.008173828125000001,0,0,0.008173828125000001,89.05385742187501,0)" xlink:href="#ac"/></g><path d="M471 26C259 26 90-98 90-318c0-256 228-303 435-329 202-27 287-16 287-108 0-139-79-219-234-219-161 0-248 86-283 164l-173-57c86-203 278-265 451-265 150 0 419 46 419 395V0H815v-152h-12C765-73 660 26 471 26zm31-159c199 0 310-134 310-271v-155c-30 35-226 55-295 64-131 17-246 59-246 186 0 116 97 176 231 176" id="av"/><path d="M538 24C308 24 148-78 108-271l171-41c32 123 123 178 257 178 156 0 256-77 256-169 0-77-54-128-164-154l-186-44c-203-48-300-148-300-305 0-192 176-326 414-326 230 0 351 112 402 269l-163 42c-31-80-94-158-238-158-133 0-233 69-233 162 0 83 57 129 188 160l169 40c203 48 298 149 298 302 0 196-179 339-441 339" id="aw"/><path d="M628 24c-324 0-524-230-524-574 0-343 198-582 503-582 237 0 487 146 487 559v75H286c9 234 145 362 343 362 132 0 231-58 273-172l174 48C1024-91 857 24 628 24zM287-650h624c-17-190-120-322-304-322-192 0-309 151-320 322" id="ax"/><g id="k"><use transform="matrix(0.008173828125000001,0,0,0.008173828125000001,0,0)" xlink:href="#U"/><use transform="matrix(0.008173828125000001,0,0,0.008173828125000001,10.691367187500001,0)" xlink:href="#av"/><use transform="matrix(0.008173828125000001,0,0,0.008173828125000001,20.091269531250003,0)" xlink:href="#aj"/><use transform="matrix(0.008173828125000001,0,0,0.008173828125000001,24.145488281250003,0)" xlink:href="#aw"/><use transform="matrix(0.008173828125000001,0,0,0.008173828125000001,32.981396484375004,0)" xlink:href="#ax"/><use transform="matrix(0.008173828125000001,0,0,0.008173828125000001,42.740947265625,0)" xlink:href="#aw"/></g><path fill="#333" d="M524-1490L277 0H87l247-1490h190" id="ay"/><g id="l"><use transform="matrix(0.008173828125000001,0,0,0.008173828125000001,0,0)" xlink:href="#ay"/><use transform="matrix(0.008173828125000001,0,0,0.008173828125000001,4.495605468750001,0)" xlink:href="#X"/></g><g id="m"><use transform="matrix(0.008173828125000001,0,0,0.008173828125000001,0,0)" xlink:href="#am"/><use transform="matrix(0.008173828125000001,0,0,0.008173828125000001,12.219873046875001,0)" xlink:href="#W"/><use transform="matrix(0.008173828125000001,0,0,0.008173828125000001,16.282265625,0)" xlink:href="#an"/><use transform="matrix(0.008173828125000001,0,0,0.008173828125000001,26.188945312500003,0)" xlink:href="#X"/><use transform="matrix(0.008173828125000001,0,0,0.008173828125000001,36.447099609375,0)" xlink:href="#ao"/><use transform="matrix(0.008173828125000001,0,0,0.008173828125000001,46.721601562500005,0)" xlink:href="#X"/><use transform="matrix(0.008173828125000001,0,0,0.008173828125000001,56.979755859375004,0)" xlink:href="#ag"/><use transform="matrix(0.008173828125000001,0,0,0.008173828125000001,66.61669921875,0)" xlink:href="#as"/></g><path fill="#333" d="M707 20c-356 0-594-221-594-608 0-485 317-922 814-922 343 0 581 191 570 529h-309c-1-161-104-258-267-258-326 0-501 341-501 649 0 224 118 339 304 339 179 0 331-97 388-259h309c-81 277-347 530-714 530" id="az"/><path fill="#333" d="M549 22C246 22 73-162 73-445c0-359 234-687 634-687 301 0 475 184 475 467 0 360-234 687-633 687zm10-236c223 0 322-274 322-459 0-134-61-223-185-223-223 0-322 271-322 458 0 133 61 224 185 224" id="aA"/><path fill="#333" d="M441-638L335 0H35l186-1118h282l-30 213c87-148 206-227 368-227 241 0 374 169 330 431L1055 0H754l112-669c23-140-43-212-161-212-135 0-240 96-264 243" id="aB"/><path fill="#333" d="M776-1118l-37 229H530l-93 562c-12 72 14 104 85 104 23 0 74-7 97-13l5 225C555 8 488 16 426 16 201 16 99-97 132-301l98-588H76l37-229h155l44-266h300l-44 266h208" id="aC"/><path fill="#333" d="M36 0l185-1118h300L336 0H36zm359-1264c-91 0-153-69-139-154 14-84 99-154 190-154 89 0 153 67 139 154-14 86-100 154-190 154" id="aD"/><path fill="#333" d="M552 24C254 24 71-146 71-432c0-377 264-705 643-705 236 0 413 123 413 326 0 251-270 329-766 342-10 155 35 265 213 267 113 0 207-50 245-134l269 36C1015-105 814 24 552 24zM392-650c368-7 456-43 456-146 0-71-63-115-165-115-165 0-251 126-291 261" id="aE"/><path fill="#333" d="M490 22C212 20 43-104 37-315l281-29c11 104 65 146 186 146 109 0 214-47 222-128 5-51-29-84-119-104l-186-40c-195-42-289-149-277-303 14-232 242-359 510-359 274 2 415 119 430 308l-267 27c-11-76-56-120-162-120-98 0-203 45-211 128-6 50 24 83 118 104l194 40c196 41 291 138 279 289-15 238-265 378-545 378" id="aF"/><g id="n"><use transform="matrix(0.008173828125000001,0,0,0.008173828125000001,0,0)" xlink:href="#az"/><use transform="matrix(0.008173828125000001,0,0,0.008173828125000001,12.383349609375001,0)" xlink:href="#aA"/><use transform="matrix(0.008173828125000001,0,0,0.008173828125000001,22.657851562500003,0)" xlink:href="#aB"/><use transform="matrix(0.008173828125000001,0,0,0.008173828125000001,33.07948242187501,0)" xlink:href="#aC"/><use transform="matrix(0.008173828125000001,0,0,0.008173828125000001,39.226201171875005,0)" xlink:href="#aD"/><use transform="matrix(0.008173828125000001,0,0,0.008173828125000001,43.770849609375006,0)" xlink:href="#aB"/><use transform="matrix(0.008173828125000001,0,0,0.008173828125000001,54.192480468750006,0)" xlink:href="#aE"/><use transform="matrix(0.008173828125000001,0,0,0.008173828125000001,64.06646484375001,0)" xlink:href="#aB"/><use transform="matrix(0.008173828125000001,0,0,0.008173828125000001,74.48809570312501,0)" xlink:href="#aC"/><use transform="matrix(0.008173828125000001,0,0,0.008173828125000001,80.47133789062502,0)" xlink:href="#aE"/><use transform="matrix(0.008173828125000001,0,0,0.008173828125000001,90.34532226562503,0)" xlink:href="#aF"/></g><path fill="#333" d="M356-664L245 0H65l186-1118h173l-32 197c96-152 219-211 366-211 232 0 366 145 319 428L960 0H779l117-701c29-174-48-269-198-269-165 0-310 115-342 306" id="aG"/><g id="o"><use transform="matrix(0.008173828125000001,0,0,0.008173828125000001,0,0)" xlink:href="#ay"/><use transform="matrix(0.008173828125000001,0,0,0.008173828125000001,4.495605468750001,0)" xlink:href="#aG"/><use transform="matrix(0.008173828125000001,0,0,0.008173828125000001,14.394111328125003,0)" xlink:href="#au"/></g><path fill="#333" d="M575 26C254 26 62-139 87-390h195c-13 168 129 246 305 246 202 0 370-106 400-265 38-202-254-238-427-293-212-68-349-179-316-387 40-252 276-421 566-421 289 0 487 168 458 396h-185c7-144-113-228-291-228-194 0-337 102-361 240-27 156 137 212 244 243l142 41c149 43 400 132 354 412-40 244-251 432-596 432" id="aH"/><path fill="#333" d="M456 442C197 442 73 327 25 209l155-84c33 60 86 160 280 160 184 0 332-89 363-272l37-218-16 4C793-134 707-18 498-18 260-18 96-170 96-443c0-341 216-689 568-689 222 0 274 139 301 198l21-5 30-179h175L999 35c-48 288-275 407-543 407zm75-620c274 0 401-267 401-512 0-170-80-281-247-281-260 0-408 269-408 518 0 167 83 275 254 275" id="aI"/><g id="p"><use transform="matrix(0.008173828125000001,0,0,0.008173828125000001,0,0)" xlink:href="#aH"/><use transform="matrix(0.008173828125000001,0,0,0.008173828125000001,10.7240625,0)" xlink:href="#au"/><use transform="matrix(0.008173828125000001,0,0,0.008173828125000001,16.216875,0)" xlink:href="#af"/><use transform="matrix(0.008173828125000001,0,0,0.008173828125000001,22.7886328125,0)" xlink:href="#W"/><use transform="matrix(0.008173828125000001,0,0,0.008173828125000001,26.851025390625,0)" xlink:href="#aG"/><use transform="matrix(0.008173828125000001,0,0,0.008173828125000001,36.749531250000004,0)" xlink:href="#aI"/></g><g id="q"><use transform="matrix(0.008173828125000001,0,0,0.008173828125000001,0,0)" xlink:href="#ar"/><use transform="matrix(0.008173828125000001,0,0,0.008173828125000001,10.601455078125001,0)" xlink:href="#ao"/><use transform="matrix(0.008173828125000001,0,0,0.008173828125000001,20.875957031250003,0)" xlink:href="#W"/><use transform="matrix(0.008173828125000001,0,0,0.008173828125000001,24.938349609375003,0)" xlink:href="#as"/><use transform="matrix(0.008173828125000001,0,0,0.008173828125000001,33.766083984375,0)" xlink:href="#ag"/><use transform="matrix(0.008173828125000001,0,0,0.008173828125000001,43.403027343750004,0)" xlink:href="#as"/></g><path d="M135 0v-1490h997v253H440v360h640v249H440v375h694V0H135" id="aJ"/><path d="M128 418v-1536h295v188h14c41-89 129-202 319-202 248 0 453 193 453 575 0 372-197 576-455 576-183 0-275-108-317-198h-9v597H128zm534-640c156 0 240-139 240-336 0-196-83-334-240-334-154 0-241 131-241 334 0 202 88 336 241 336" id="aK"/><path d="M633 22C291 22 81-200 81-553c0-345 210-579 537-579 292 0 525 185 525 567v84H378c7 183 109 277 260 277 105 0 184-46 216-132l272 51C1071-99 893 22 633 22zM380-669h474c-15-146-94-237-233-237-143 0-229 99-241 237" id="aL"/><g id="r"><use transform="matrix(0.008173828125000001,0,0,0.008173828125000001,0,0)" xlink:href="#aJ"/><use transform="matrix(0.008173828125000001,0,0,0.008173828125000001,10.1682421875,0)" xlink:href="#T"/><use transform="matrix(0.008173828125000001,0,0,0.008173828125000001,19.543623046875002,0)" xlink:href="#aK"/><use transform="matrix(0.008173828125000001,0,0,0.008173828125000001,30.096035156250004,0)" xlink:href="#aL"/><use transform="matrix(0.008173828125000001,0,0,0.008173828125000001,40.068105468750005,0)" xlink:href="#S"/><use transform="matrix(0.008173828125000001,0,0,0.008173828125000001,49.917568359375004,0)" xlink:href="#R"/><use transform="matrix(0.008173828125000001,0,0,0.008173828125000001,54.45404296875,0)" xlink:href="#aL"/></g><path d="M440 22C227 22 68-92 68-313c0-250 202-322 422-343 195-21 271-24 271-105 0-95-63-149-175-149-116 0-187 57-211 129l-275-46c57-194 237-305 487-305 240 0 474 108 474 379V0H777v-155h-10C713-51 605 22 440 22zm85-211c140 0 238-93 238-211v-121c-37 26-156 42-222 51-111 16-185 59-185 149 0 87 70 132 169 132" id="aM"/><path d="M428-647V0H128v-1118h283l4 231c63-156 176-245 348-245 232 0 384 159 384 421V0H847v-659c0-139-76-222-202-222-128 0-217 86-217 234" id="aN"/><path d="M128 0v-1118h278l12 217c60-163 185-234 319-234 143 0 236 81 288 251 63-172 205-251 359-251 205 0 357 138 357 381V0h-301v-697c0-126-76-187-177-187-114 0-184 79-184 196V0H789v-705c0-109-72-179-174-179-106 0-187 74-187 208V0H128" id="aO"/><g id="s"><use transform="matrix(0.008173828125000001,0,0,0.008173828125000001,0,0)" xlink:href="#aM"/><use transform="matrix(0.008173828125000001,0,0,0.008173828125000001,9.718681640625,0)" xlink:href="#aN"/><use transform="matrix(0.008173828125000001,0,0,0.008173828125000001,20.1403125,0)" xlink:href="#R"/><use transform="matrix(0.008173828125000001,0,0,0.008173828125000001,24.676787109375,0)" xlink:href="#aO"/><use transform="matrix(0.008173828125000001,0,0,0.008173828125000001,39.953671875,0)" xlink:href="#aM"/><use transform="matrix(0.008173828125000001,0,0,0.008173828125000001,49.672353515625,0)" xlink:href="#P"/></g><g id="t"><use transform="matrix(0.008173828125000001,0,0,0.008173828125000001,0,0)" xlink:href="#ab"/><use transform="matrix(0.008173828125000001,0,0,0.008173828125000001,12.612216796875002,0)" xlink:href="#ac"/><use transform="matrix(0.008173828125000001,0,0,0.008173828125000001,22.657851562500003,0)" xlink:href="#ad"/><use transform="matrix(0.008173828125000001,0,0,0.008173828125000001,37.321699218750005,0)" xlink:href="#ae"/><use transform="matrix(0.008173828125000001,0,0,0.008173828125000001,47.579853515625004,0)" xlink:href="#af"/><use transform="matrix(0.008173828125000001,0,0,0.008173828125000001,53.612138671875,0)" xlink:href="#ag"/></g><path fill="#333" d="M389 0L147-1118h188c55 314 135 617 168 951 141-329 323-637 482-951h205L578 0H389" id="aP"/><path fill="#333" d="M492-1490L245 0H65l247-1490h180" id="aQ"/><g id="u"><use transform="matrix(0.008173828125000001,0,0,0.008173828125000001,0,0)" xlink:href="#aP"/><use transform="matrix(0.008173828125000001,0,0,0.008173828125000001,9.408076171875,0)" xlink:href="#an"/><use transform="matrix(0.008173828125000001,0,0,0.008173828125000001,19.314755859375,0)" xlink:href="#aQ"/><use transform="matrix(0.008173828125000001,0,0,0.008173828125000001,23.368974609375,0)" xlink:href="#aI"/><use transform="matrix(0.008173828125000001,0,0,0.008173828125000001,33.635302734375,0)" xlink:href="#ao"/><use transform="matrix(0.008173828125000001,0,0,0.008173828125000001,43.90980468750001,0)" xlink:href="#af"/></g><g id="v"><use transform="matrix(0.008173828125000001,0,0,0.008173828125000001,0,0)" xlink:href="#ab"/><use transform="matrix(0.008173828125000001,0,0,0.008173828125000001,12.612216796875002,0)" xlink:href="#ac"/><use transform="matrix(0.008173828125000001,0,0,0.008173828125000001,22.657851562500003,0)" xlink:href="#ad"/><use transform="matrix(0.008173828125000001,0,0,0.008173828125000001,37.321699218750005,0)" xlink:href="#ae"/><use transform="matrix(0.008173828125000001,0,0,0.008173828125000001,47.579853515625004,0)" xlink:href="#af"/><use transform="matrix(0.008173828125000001,0,0,0.008173828125000001,53.612138671875,0)" xlink:href="#ag"/></g><path fill="#333" d="M528 24C258 24 94-156 94-433c0-354 228-699 603-699 222 0 381 120 410 314l-176 39c-14-114-95-192-238-192-272 0-419 288-419 536 0 167 76 298 258 298 155 0 277-90 329-211l166 58C935-93 745 24 528 24" id="aR"/><path fill="#333" d="M780-1118l-24 146H497L317 116C281 334 148 448-56 448c-43 0-82-5-117-17l45-161c143 34 239 0 264-153L316-972H89l24-146h227l13-77c43-287 254-417 541-345l-50 154c-23-5-81-8-121-8-107 0-167 63-189 196l-13 80h259" id="aS"/><g id="w"><use transform="matrix(0.008173828125000001,0,0,0.008173828125000001,0,0)" xlink:href="#aR"/><use transform="matrix(0.008173828125000001,0,0,0.008173828125000001,9.571552734375,0)" xlink:href="#W"/><use transform="matrix(0.008173828125000001,0,0,0.008173828125000001,13.6339453125,0)" xlink:href="#ag"/><use transform="matrix(0.008173828125000001,0,0,0.008173828125000001,23.270888671875,0)" xlink:href="#aG"/><use transform="matrix(0.008173828125000001,0,0,0.008173828125000001,33.16939453125,0)" xlink:href="#au"/><use transform="matrix(0.008173828125000001,0,0,0.008173828125000001,38.66220703125,0)" xlink:href="#W"/><use transform="matrix(0.008173828125000001,0,0,0.008173828125000001,42.724599609375,0)" xlink:href="#aS"/><use transform="matrix(0.008173828125000001,0,0,0.008173828125000001,48.969404296875,0)" xlink:href="#W"/><use transform="matrix(0.008173828125000001,0,0,0.008173828125000001,53.031796875,0)" xlink:href="#aR"/><use transform="matrix(0.008173828125000001,0,0,0.008173828125000001,62.603349609375,0)" xlink:href="#ac"/></g><path fill="#333" d="M87 0l247-1490h901l-28 167H496l-85 512h643l-27 167H384L277 0H87" id="aT"/><g id="x"><use transform="matrix(0.008173828125000001,0,0,0.008173828125000001,0,0)" xlink:href="#aT"/><use transform="matrix(0.008173828125000001,0,0,0.008173828125000001,9.220078125000002,0)" xlink:href="#ao"/><use transform="matrix(0.008173828125000001,0,0,0.008173828125000001,19.494580078125004,0)" xlink:href="#ad"/><use transform="matrix(0.008173828125000001,0,0,0.008173828125000001,34.15842773437501,0)" xlink:href="#W"/><use transform="matrix(0.008173828125000001,0,0,0.008173828125000001,38.22082031250001,0)" xlink:href="#aQ"/><use transform="matrix(0.008173828125000001,0,0,0.008173828125000001,42.275039062500014,0)" xlink:href="#W"/><use transform="matrix(0.008173828125000001,0,0,0.008173828125000001,46.33743164062501,0)" xlink:href="#ao"/></g><g id="y"><use transform="matrix(0.008173828125000001,0,0,0.008173828125000001,0,0)" xlink:href="#ar"/><use transform="matrix(0.008173828125000001,0,0,0.008173828125000001,10.601455078125001,0)" xlink:href="#ag"/><use transform="matrix(0.008173828125000001,0,0,0.008173828125000001,20.238398437500003,0)" xlink:href="#aQ"/><use transform="matrix(0.008173828125000001,0,0,0.008173828125000001,24.292617187500003,0)" xlink:href="#W"/><use transform="matrix(0.008173828125000001,0,0,0.008173828125000001,28.355009765625002,0)" xlink:href="#aI"/><use transform="matrix(0.008173828125000001,0,0,0.008173828125000001,38.621337890625,0)" xlink:href="#af"/><use transform="matrix(0.008173828125000001,0,0,0.008173828125000001,44.653623046875,0)" xlink:href="#ac"/></g><path fill="#333" d="M87 0l247-1490h908l-28 167H496l-80 487h669l-28 167H387l-83 502h727L1004 0H87" id="aU"/><path fill="#333" d="M-28 0l489-573-281-545h202c65 135 144 295 195 434 91-140 226-300 336-434h214L662-564 960 0H756c-70-143-156-309-211-458C447-309 301-142 185 0H-28" id="aV"/><g id="z"><use transform="matrix(0.008173828125000001,0,0,0.008173828125000001,0,0)" xlink:href="#aU"/><use transform="matrix(0.008173828125000001,0,0,0.008173828125000001,10.070156250000002,0)" xlink:href="#aV"/><use transform="matrix(0.008173828125000001,0,0,0.008173828125000001,19.535449218750003,0)" xlink:href="#au"/><use transform="matrix(0.008173828125000001,0,0,0.008173828125000001,25.028261718750002,0)" xlink:href="#W"/><use transform="matrix(0.008173828125000001,0,0,0.008173828125000001,29.090654296875,0)" xlink:href="#aG"/><use transform="matrix(0.008173828125000001,0,0,0.008173828125000001,38.98916015625,0)" xlink:href="#as"/><use transform="matrix(0.008173828125000001,0,0,0.008173828125000001,47.81689453125,0)" xlink:href="#W"/><use transform="matrix(0.008173828125000001,0,0,0.008173828125000001,51.879287109375,0)" xlink:href="#ac"/><use transform="matrix(0.008173828125000001,0,0,0.008173828125000001,61.924921875,0)" xlink:href="#aG"/></g><path d="M180 0v-1490h528c311 0 458 177 458 395 0 191-114 278-244 313v14c139 9 302 137 302 371 0 225-148 397-499 397H180zm190-168h350c232 0 321-102 321-231 0-149-120-277-311-277H370v508zm0-668h328c160 0 286-101 286-255 0-129-87-231-280-231H370v486" id="aW"/><path d="M613 24c-304 0-509-231-509-576 0-350 205-580 509-580 305 0 511 230 511 580 0 345-206 576-511 576zm0-161c226 0 329-195 329-415 0-222-103-419-329-419-223 0-326 196-326 419 0 220 103 415 326 415" id="aX"/><path d="M338-1490V0H158v-1490h180" id="aY"/><g id="A"><use transform="matrix(0.008173828125000001,0,0,0.008173828125000001,0,0)" xlink:href="#aW"/><use transform="matrix(0.008173828125000001,0,0,0.008173828125000001,10.952929687500001,0)" xlink:href="#aX"/><use transform="matrix(0.008173828125000001,0,0,0.008173828125000001,20.990390625000003,0)" xlink:href="#aX"/><use transform="matrix(0.008173828125000001,0,0,0.008173828125000001,31.027851562500004,0)" xlink:href="#aY"/></g><path d="M135 0v-1490h980v253H440v416h609v249H440V0H135" id="aZ"/><g id="B"><use transform="matrix(0.008173828125000001,0,0,0.008173828125000001,0,0)" xlink:href="#aZ"/><use transform="matrix(0.008173828125000001,0,0,0.008173828125000001,9.547031250000002,0)" xlink:href="#aM"/><use transform="matrix(0.008173828125000001,0,0,0.008173828125000001,19.265712890625004,0)" xlink:href="#aO"/><use transform="matrix(0.008173828125000001,0,0,0.008173828125000001,34.54259765625001,0)" xlink:href="#R"/><use transform="matrix(0.008173828125000001,0,0,0.008173828125000001,39.079072265625,0)" xlink:href="#P"/><use transform="matrix(0.008173828125000001,0,0,0.008173828125000001,43.61554687500001,0)" xlink:href="#R"/><use transform="matrix(0.008173828125000001,0,0,0.008173828125000001,48.152021484375005,0)" xlink:href="#aM"/><use transform="matrix(0.008173828125000001,0,0,0.008173828125000001,57.870703125000006,0)" xlink:href="#T"/></g><g id="C"><use transform="matrix(0.008173828125000001,0,0,0.008173828125000001,0,0)" xlink:href="#aM"/><use transform="matrix(0.008173828125000001,0,0,0.008173828125000001,9.718681640625,0)" xlink:href="#aN"/><use transform="matrix(0.008173828125000001,0,0,0.008173828125000001,20.1403125,0)" xlink:href="#R"/><use transform="matrix(0.008173828125000001,0,0,0.008173828125000001,24.676787109375,0)" xlink:href="#aO"/><use transform="matrix(0.008173828125000001,0,0,0.008173828125000001,39.953671875,0)" xlink:href="#aM"/><use transform="matrix(0.008173828125000001,0,0,0.008173828125000001,49.672353515625,0)" xlink:href="#P"/><use transform="matrix(0.008173828125000001,0,0,0.008173828125000001,54.208828125,0)" xlink:href="#aL"/><use transform="matrix(0.008173828125000001,0,0,0.008173828125000001,64.18089843749999,0)" xlink:href="#T"/></g><path d="M49 0l509-1490h400L1480 0h-339l-115-346H497L386 0H49zm524-585h374c-75-213-124-402-192-666-66 268-110 453-182 666" id="ba"/><g id="D"><use transform="matrix(0.008173828125000001,0,0,0.008173828125000001,0,0)" xlink:href="#ba"/><use transform="matrix(0.008173828125000001,0,0,0.008173828125000001,12.497783203125001,0)" xlink:href="#aN"/><use transform="matrix(0.008173828125000001,0,0,0.008173828125000001,22.919414062500003,0)" xlink:href="#R"/><use transform="matrix(0.008173828125000001,0,0,0.008173828125000001,27.455888671875,0)" xlink:href="#aO"/><use transform="matrix(0.008173828125000001,0,0,0.008173828125000001,42.7327734375,0)" xlink:href="#aM"/><use transform="matrix(0.008173828125000001,0,0,0.008173828125000001,52.451455078125,0)" xlink:href="#P"/><use transform="matrix(0.008173828125000001,0,0,0.008173828125000001,56.9879296875,0)" xlink:href="#aL"/><use transform="matrix(0.008173828125000001,0,0,0.008173828125000001,66.96000000000001,0)" xlink:href="#T"/></g><path fill="#333" d="M38 0l23-134 995-1189H249l28-167h1037l-23 136L295-167h807L1074 0H38" id="bb"/><g id="E"><use transform="matrix(0.008173828125000001,0,0,0.008173828125000001,0,0)" xlink:href="#bb"/><use transform="matrix(0.008173828125000001,0,0,0.008173828125000001,10.544238281250001,0)" xlink:href="#ac"/><use transform="matrix(0.008173828125000001,0,0,0.008173828125000001,20.589873046875002,0)" xlink:href="#ac"/><use transform="matrix(0.008173828125000001,0,0,0.008173828125000001,30.635507812500002,0)" xlink:href="#aQ"/><use transform="matrix(0.008173828125000001,0,0,0.008173828125000001,34.6897265625,0)" xlink:href="#W"/><use transform="matrix(0.008173828125000001,0,0,0.008173828125000001,38.752119140625,0)" xlink:href="#aI"/><use transform="matrix(0.008173828125000001,0,0,0.008173828125000001,49.018447265625,0)" xlink:href="#aR"/><use transform="matrix(0.008173828125000001,0,0,0.008173828125000001,58.59,0)" xlink:href="#ac"/><use transform="matrix(0.008173828125000001,0,0,0.008173828125000001,68.635634765625,0)" xlink:href="#as"/></g><g id="F"><use transform="matrix(0.008173828125000001,0,0,0.008173828125000001,0,0)" xlink:href="#aj"/><use transform="matrix(0.008173828125000001,0,0,0.008173828125000001,4.05421875,0)" xlink:href="#Z"/><use transform="matrix(0.008173828125000001,0,0,0.008173828125000001,13.944550781250001,0)" xlink:href="#aa"/></g><path fill="#333" d="M-41 0l788-1490h220L1268 0h-192l-80-416H383L169 0H-41zm509-582h497c-56-293-77-375-126-756-162 359-224 468-371 756" id="bc"/><g id="G"><use transform="matrix(0.008173828125000001,0,0,0.008173828125000001,0,0)" xlink:href="#bc"/><use transform="matrix(0.008173828125000001,0,0,0.008173828125000001,11.549619140625001,0)" xlink:href="#aq"/><use transform="matrix(0.008173828125000001,0,0,0.008173828125000001,21.448125000000005,0)" xlink:href="#ac"/></g><g id="H"><use transform="matrix(0.008173828125000001,0,0,0.008173828125000001,0,0)" xlink:href="#aG"/><use transform="matrix(0.008173828125000001,0,0,0.008173828125000001,9.898505859375001,0)" xlink:href="#ao"/><use transform="matrix(0.008173828125000001,0,0,0.008173828125000001,20.173007812500003,0)" xlink:href="#aR"/><use transform="matrix(0.008173828125000001,0,0,0.008173828125000001,29.744560546875004,0)" xlink:href="#W"/><use transform="matrix(0.008173828125000001,0,0,0.008173828125000001,33.80695312500001,0)" xlink:href="#ad"/><use transform="matrix(0.008173828125000001,0,0,0.008173828125000001,48.470800781250006,0)" xlink:href="#W"/><use transform="matrix(0.008173828125000001,0,0,0.008173828125000001,52.533193359375005,0)" xlink:href="#ag"/><use transform="matrix(0.008173828125000001,0,0,0.008173828125000001,62.17013671875001,0)" xlink:href="#aG"/><use transform="matrix(0.008173828125000001,0,0,0.008173828125000001,72.06864257812501,0)" xlink:href="#au"/><use transform="matrix(0.008173828125000001,0,0,0.008173828125000001,77.39797851562501,0)" xlink:href="#ac"/></g><g id="I"><use transform="matrix(0.008173828125000001,0,0,0.008173828125000001,0,0)" xlink:href="#aH"/><use transform="matrix(0.008173828125000001,0,0,0.008173828125000001,10.7240625,0)" xlink:href="#ag"/><use transform="matrix(0.008173828125000001,0,0,0.008173828125000001,19.985009765625,0)" xlink:href="#aV"/><use transform="matrix(0.008173828125000001,0,0,0.008173828125000001,28.747353515625,0)" xlink:href="#ac"/></g><g id="J"><use transform="matrix(0.008173828125000001,0,0,0.008173828125000001,0,0)" xlink:href="#aU"/><use transform="matrix(0.008173828125000001,0,0,0.008173828125000001,10.070156250000002,0)" xlink:href="#as"/><use transform="matrix(0.008173828125000001,0,0,0.008173828125000001,18.897890625000002,0)" xlink:href="#at"/><use transform="matrix(0.008173828125000001,0,0,0.008173828125000001,29.156044921875,0)" xlink:href="#ag"/><use transform="matrix(0.008173828125000001,0,0,0.008173828125000001,38.792988281250004,0)" xlink:href="#aR"/><use transform="matrix(0.008173828125000001,0,0,0.008173828125000001,48.36454101562501,0)" xlink:href="#W"/><use transform="matrix(0.008173828125000001,0,0,0.008173828125000001,52.42693359375001,0)" xlink:href="#ag"/></g><g id="K"><use transform="matrix(0.008173828125000001,0,0,0.008173828125000001,0,0)" xlink:href="#ar"/><use transform="matrix(0.008173828125000001,0,0,0.008173828125000001,10.601455078125001,0)" xlink:href="#ao"/><use transform="matrix(0.008173828125000001,0,0,0.008173828125000001,20.875957031250003,0)" xlink:href="#W"/><use transform="matrix(0.008173828125000001,0,0,0.008173828125000001,24.938349609375003,0)" xlink:href="#as"/></g><path fill="#333" d="M699 20c-338 0-560-226-560-600 0-472 307-930 791-930 337 0 558 226 558 599 0 474-306 931-789 931zm7-176c374 0 598-379 598-750 0-280-157-428-381-428-373 0-600 379-600 749 0 280 158 429 383 429" id="bd"/><g id="L"><use transform="matrix(0.008173828125000001,0,0,0.008173828125000001,0,0)" xlink:href="#bd"/><use transform="matrix(0.008173828125000001,0,0,0.008173828125000001,12.800214843750002,0)" xlink:href="#af"/><use transform="matrix(0.008173828125000001,0,0,0.008173828125000001,19.37197265625,0)" xlink:href="#W"/><use transform="matrix(0.008173828125000001,0,0,0.008173828125000001,23.434365234374997,0)" xlink:href="#aI"/><use transform="matrix(0.008173828125000001,0,0,0.008173828125000001,33.700693359375,0)" xlink:href="#ag"/><use transform="matrix(0.008173828125000001,0,0,0.008173828125000001,43.337636718750005,0)" xlink:href="#aG"/></g><path fill="#333" d="M419 14C188 14 60-144 103-407l118-711h300L412-459c-23 138 39 222 166 222 125 0 231-84 255-234l107-647h301L1056 0H772l35-232C717-74 589 14 419 14" id="be"/><path fill="#333" d="M457 19C230 19 71-139 71-426c0-345 196-706 543-706 198 0 272 121 298 211h11l94-569h300L1070 0H775l32-179h-16C734-78 632 19 457 19zm100-241c213 0 324-249 324-452 0-136-60-218-181-218-213 0-322 248-322 449 0 134 58 221 179 221" id="bf"/><path fill="#333" d="M441 19C184 19 19-186 81-558c63-382 303-574 550-574 189 0 259 113 285 202h10l31-188h299L1071 0H776l29-179h-14C733-87 623 19 441 19zm133-241c154 0 263-135 296-336 34-204-31-334-185-334-159 0-264 139-296 334-33 197 29 336 185 336" id="bg"/><g id="M"><use transform="matrix(0.008173828125000001,0,0,0.008173828125000001,0,0)" xlink:href="#az"/><use transform="matrix(0.008173828125000001,0,0,0.008173828125000001,12.383349609375001,0)" xlink:href="#aD"/><use transform="matrix(0.008173828125000001,0,0,0.008173828125000001,16.927998046875,0)" xlink:href="#be"/><use transform="matrix(0.008173828125000001,0,0,0.008173828125000001,27.357802734375,0)" xlink:href="#bf"/><use transform="matrix(0.008173828125000001,0,0,0.008173828125000001,37.91021484375,0)" xlink:href="#bg"/><use transform="matrix(0.008173828125000001,0,0,0.008173828125000001,48.47080078125,0)" xlink:href="#bf"/><use transform="matrix(0.008173828125000001,0,0,0.008173828125000001,59.023212890625004,0)" xlink:href="#aE"/><use transform="matrix(0.008173828125000001,0,0,0.008173828125000001,68.89719726562501,0)" xlink:href="#aF"/></g></defs></g></svg>